HIERARCHY
ROOT hip
{
  OFFSET 0.00112043 5.09927 -9.65472
  CHANNELS 6 Xposition Yposition Zposition Zrotation Xrotation Yrotation
  JOINT abdomen
  {
    OFFSET 0 -1.186 -1.5018
    CHANNELS 3 Zrotation Xrotation Yrotation
    JOINT abdomen2
    {
      OFFSET 0 9.964 0.2134
      CHANNELS 3 Zrotation Xrotation Yrotation
      JOINT chest
      {
        OFFSET 0 13.134 -3.2573
        CHANNELS 3 Zrotation Xrotation Yrotation
        JOINT neck
        {
          OFFSET 0 20.686 -1.6905
          CHANNELS 3 Zrotation Xrotation Yrotation
          JOINT head
          {
            OFFSET 0 7.238 -0.1237
            CHANNELS 3 Zrotation Xrotation Yrotation
            End Site
            {
              OFFSET 0 0 0
            }
          }
        }
        JOINT lCollar
        {
          OFFSET 1.7069 20.075 5.0056
          CHANNELS 3 Zrotation Xrotation Yrotation
          JOINT lShldr
          {
            OFFSET 13.6458 -0.047 -4.849
            CHANNELS 3 Zrotation Xrotation Yrotation
            JOINT lForeArm
            {
              OFFSET 28.3255 -0.9759 2.2888
              CHANNELS 3 Zrotation Xrotation Yrotation
              JOINT lHand
              {
                OFFSET 22.1583 -0.53 10.8316
                CHANNELS 3 Zrotation Xrotation Yrotation
                JOINT lThumb1
                {
                  OFFSET 0.786 0.112 2.5817
                  CHANNELS 3 Zrotation Xrotation Yrotation
                  JOINT lThumb2
                  {
                    OFFSET 0.3601 -0.878 4.2331
                    CHANNELS 3 Zrotation Xrotation Yrotation
                    JOINT lThumb2_End
                    {
                      OFFSET 1.8127 -1.216 2.2227
                      CHANNELS 3 Zrotation Xrotation Yrotation
                      End Site
                      {
                        OFFSET 0.0181 -0.0122 0.0222
                      }
                    }
                  }
                }
                JOINT lCarpal1
                {
                  OFFSET 0.9571 1.114 1.7695
                  CHANNELS 3 Zrotation Xrotation Yrotation
                  JOINT lIndex1
                  {
                    OFFSET 4.1246 0.487 4.1451
                    CHANNELS 3 Zrotation Xrotation Yrotation
                    JOINT lIndex2
                    {
                      OFFSET 3.4052 -1.454 2.7682
                      CHANNELS 3 Zrotation Xrotation Yrotation
                      JOINT lIndex2_End
                      {
                        OFFSET 1.4531 -1.795 1.2713
                        CHANNELS 3 Zrotation Xrotation Yrotation
                        End Site
                        {
                          OFFSET 0.0145 -0.0179 0.0127
                        }
                      }
                    }
                  }
                  JOINT lMid1
                  {
                    OFFSET 5.6954 0.21 2.1184
                    CHANNELS 3 Zrotation Xrotation Yrotation
                    JOINT lMid2
                    {
                      OFFSET 3.9766 -1.54 2.3863
                      CHANNELS 3 Zrotation Xrotation Yrotation
                      JOINT lMid2_End
                      {
                        OFFSET 1.4042 -1.926 1.125
                        CHANNELS 3 Zrotation Xrotation Yrotation
                        End Site
                        {
                          OFFSET 0.014 -0.0193 0.0113
                        }
                      }
                    }
                  }
                }
                JOINT lCarpal2
                {
                  OFFSET 2.0956 0.66 -0.3894
                  CHANNELS 3 Zrotation Xrotation Yrotation
                  JOINT lRing1
                  {
                    OFFSET 5.0395 -0.09 2.4971
                    CHANNELS 3 Zrotation Xrotation Yrotation
                    JOINT lRing2
                    {
                      OFFSET 3.7921 -1.552 1.4806
                      CHANNELS 3 Zrotation Xrotation Yrotation
                      JOINT lRing2_End
                      {
                        OFFSET 1.4655 -1.808 0.9609
                        CHANNELS 3 Zrotation Xrotation Yrotation
                        End Site
                        {
                          OFFSET 0.0147 -0.0181 0.0096
                        }
                      }
                    }
                  }
                  JOINT lPinky1
                  {
                    OFFSET 4.9141 -1.269 0.3591
                    CHANNELS 3 Zrotation Xrotation Yrotation
                    JOINT lPinky2
                    {
                      OFFSET 3.1477 -1.685 0.8462
                      CHANNELS 3 Zrotation Xrotation Yrotation
                      JOINT lPinky2_End
                      {
                        OFFSET 0.8055 -1.585 0.7955
                        CHANNELS 3 Zrotation Xrotation Yrotation
                        End Site
                        {
                          OFFSET 0.0081 -0.0158 0.008
                        }
                      }
                    }
                  }
                }
              }
            }
          }
        }
        JOINT rCollar
        {
          OFFSET -1.7069 20.075 5.0056
          CHANNELS 3 Zrotation Xrotation Yrotation
          JOINT rShldr
          {
            OFFSET -13.6458 -0.047 -4.849
            CHANNELS 3 Zrotation Xrotation Yrotation
            JOINT rForeArm
            {
              OFFSET -28.3255 -0.9759 2.2888
              CHANNELS 3 Zrotation Xrotation Yrotation
              JOINT rHand
              {
                OFFSET -22.1583 -0.53 10.8316
                CHANNELS 3 Zrotation Xrotation Yrotation
                JOINT rThumb1
                {
                  OFFSET -0.786 0.112 2.5817
                  CHANNELS 3 Zrotation Xrotation Yrotation
                  JOINT rThumb2
                  {
                    OFFSET -0.3601 -0.878 4.2331
                    CHANNELS 3 Zrotation Xrotation Yrotation
                    JOINT rThumb2_End
                    {
                      OFFSET -1.8127 -1.216 2.2227
                      CHANNELS 3 Zrotation Xrotation Yrotation
                      End Site
                      {
                        OFFSET -0.0181 -0.0122 0.0222
                      }
                    }
                  }
                }
                JOINT rCarpal1
                {
                  OFFSET -0.9571 1.114 1.7695
                  CHANNELS 3 Zrotation Xrotation Yrotation
                  JOINT rIndex1
                  {
                    OFFSET -4.1246 0.487 4.1451
                    CHANNELS 3 Zrotation Xrotation Yrotation
                    JOINT rIndex2
                    {
                      OFFSET -3.4052 -1.454 2.7682
                      CHANNELS 3 Zrotation Xrotation Yrotation
                      JOINT rIndex2_End
                      {
                        OFFSET -1.4531 -1.795 1.2713
                        CHANNELS 3 Zrotation Xrotation Yrotation
                        End Site
                        {
                          OFFSET -0.0145 -0.018 0.0127
                        }
                      }
                    }
                  }
                  JOINT rMid1
                  {
                    OFFSET -5.6954 0.21 2.1184
                    CHANNELS 3 Zrotation Xrotation Yrotation
                    JOINT rMid2
                    {
                      OFFSET -3.9766 -1.54 2.3863
                      CHANNELS 3 Zrotation Xrotation Yrotation
                      JOINT rMid2_End
                      {
                        OFFSET -1.4042 -1.926 1.125
                        CHANNELS 3 Zrotation Xrotation Yrotation
                        End Site
                        {
                          OFFSET -0.014 -0.0193 0.0113
                        }
                      }
                    }
                  }
                }
                JOINT rCarpal2
                {
                  OFFSET -2.0956 0.66 -0.3894
                  CHANNELS 3 Zrotation Xrotation Yrotation
                  JOINT rRing1
                  {
                    OFFSET -5.0395 -0.09 2.4971
                    CHANNELS 3 Zrotation Xrotation Yrotation
                    JOINT rRing2
                    {
                      OFFSET -3.7921 -1.552 1.4806
                      CHANNELS 3 Zrotation Xrotation Yrotation
                      JOINT rRing2_End
                      {
                        OFFSET -1.4655 -1.808 0.9609
                        CHANNELS 3 Zrotation Xrotation Yrotation
                        End Site
                        {
                          OFFSET -0.0147 -0.0181 0.0096
                        }
                      }
                    }
                  }
                  JOINT rPinky1
                  {
                    OFFSET -4.9141 -1.269 0.3592
                    CHANNELS 3 Zrotation Xrotation Yrotation
                    JOINT rPinky2
                    {
                      OFFSET -3.1477 -1.685 0.8462
                      CHANNELS 3 Zrotation Xrotation Yrotation
                      JOINT rPinky2_End
                      {
                        OFFSET -0.8055 -1.585 0.7955
                        CHANNELS 3 Zrotation Xrotation Yrotation
                        End Site
                        {
                          OFFSET -0.0081 -0.0158 0.008
                        }
                      }
                    }
                  }
                }
              }
            }
          }
        }
      }
    }
  }
  JOINT lThigh
  {
    OFFSET 8.367 -8.2066 0.5982
    CHANNELS 3 Zrotation Xrotation Yrotation
    JOINT lShin
    {
      OFFSET 2.1923 -43.463 -0.4932
      CHANNELS 3 Zrotation Xrotation Yrotation
      JOINT lFoot
      {
        OFFSET 0.7333 -45.8593 -2.6451
        CHANNELS 3 Zrotation Xrotation Yrotation
        End Site
        {
          OFFSET 2.6618 -4.2699 12.3931
        }
      }
    }
  }
  JOINT rThigh
  {
    OFFSET -8.367 -8.2066 0.5982
    CHANNELS 3 Zrotation Xrotation Yrotation
    JOINT rShin
    {
      OFFSET -2.1923 -43.463 -0.4931
      CHANNELS 3 Zrotation Xrotation Yrotation
      JOINT rFoot
      {
        OFFSET -0.7333 -45.8593 -2.6451
        CHANNELS 3 Zrotation Xrotation Yrotation
        End Site
        {
          OFFSET -2.6618 -4.2699 12.3931
        }
      }
    }
  }
}
MOTION
Frames:	7
Frame Time:	0.0333333
0 91.7903 2.51682 0 0 -0 0 0 -0 0 0 -0 0 0 -0 0 0 -0 0 0 -0 0 0 -0 1.66051 0.0835086 5.75766 -0.0175111 0.895433 15.7816 7.95139e-016 -1.98785e-016 -0 5.46658e-016 -3.97569e-016 -0 5.96354e-016 0 -0 3.97569e-016 1.98785e-016 9.54166e-015 1.49089e-016 -3.97569e-016 -0 6.4605e-016 0 3.18055e-015 5.96354e-016 0 3.18055e-015 8.94531e-016 -1.98785e-016 6.36111e-015 6.4605e-016 0 3.18055e-015 5.96354e-016 0 3.18055e-015 8.94531e-016 -1.98785e-016 6.36111e-015 1.49089e-016 -3.97569e-016 -0 6.4605e-016 0 3.18055e-015 5.96354e-016 0 3.18055e-015 8.94531e-016 -1.98785e-016 6.36111e-015 6.4605e-016 0 3.18055e-015 5.96354e-016 0 3.18055e-015 8.94531e-016 -1.98785e-016 6.36111e-015 0 0 -0 -1.4496 0.0636048 -5.0245 -1.74811 1.20616 -16.8394 -1.19271e-015 1.98785e-016 -3.18055e-015 -3.97569e-016 1.98785e-016 -3.18055e-015 -2.98177e-016 1.98785e-016 -3.18055e-015 -2.98177e-016 3.97569e-016 -0 4.96962e-016 0 -6.36111e-015 -9.93923e-017 3.97569e-016 -0 -8.94531e-016 5.96354e-016 -0 -3.97569e-016 3.97569e-016 -0 -9.93923e-017 3.97569e-016 -0 -8.94531e-016 5.96354e-016 -0 -3.97569e-016 3.97569e-016 -0 4.96962e-016 0 -6.36111e-015 -9.93923e-017 3.97569e-016 -0 -8.94531e-016 5.96354e-016 -0 -3.97569e-016 3.97569e-016 -0 -9.93923e-017 3.97569e-016 -0 -8.94531e-016 5.96354e-016 -0 -3.97569e-016 3.97569e-016 -0 -4.66111 -0.998717 0.12318 0.00986924 1.54847 0.176523 4.65186 -0.572283 -0.254274 4.66111 -0.998765 -0.123176 -0.00986867 1.54869 -0.176537 -4.65186 -0.572453 0.25427 
-17.0192 44.3987 23.7276 58.3722 36.7817 6.96815 -2.94197 3.7366 -1.26929 -5.819 7.5328 -2.35192 -5.81899 7.53279 -2.35192 -13.2463 -0.323761 3.6969 -0.644725 -0.922318 14.2258 -10.446 6.27855 -5.96155 -22.6808 -37.5634 3.84143 -59.4341 12.4551 5.75735 -9.30257 -24.7588 7.73805 1.41245e-030 1.27222e-014 -6.36111e-015 2.59622e-006 1.34075e-006 -3.14463e-006 1.27222e-014 3.18055e-015 -0 7.06225e-031 6.36111e-015 -6.36111e-015 -1.27222e-014 3.18055e-015 9.54166e-015 2.59622e-006 1.34075e-006 -3.14463e-006 -3.18055e-015 6.36111e-015 -0 -1.27222e-014 3.18055e-015 9.54166e-015 2.59622e-006 1.34075e-006 -3.14463e-006 -3.18055e-015 6.36111e-015 -0 7.06225e-031 6.36111e-015 -6.36111e-015 -1.27222e-014 3.18055e-015 9.54166e-015 2.59622e-006 1.34075e-006 -3.14463e-006 -3.18055e-015 6.36111e-015 -0 -1.27222e-014 3.18055e-015 9.54166e-015 2.59622e-006 1.34075e-006 -3.14463e-006 -3.18055e-015 6.36111e-015 -0 -0.903593 0.564886 6.53546 0.525496 15.4138 2.39211 -10.0517 -4.32112 -9.48566 -6.8041 1.82743 10.5264 3.53113e-031 -3.18055e-015 6.36111e-015 3.18055e-015 -6.36111e-015 6.36111e-015 3.18055e-015 -3.18055e-015 -0 -0 0 6.36111e-015 3.18055e-015 -9.54166e-015 4.77083e-015 3.18055e-015 3.18055e-015 -3.18055e-015 0 0 -4.77083e-015 3.18055e-015 -9.54166e-015 4.77083e-015 3.18055e-015 3.18055e-015 -3.18055e-015 0 0 -4.77083e-015 -0 0 6.36111e-015 3.18055e-015 -9.54166e-015 4.77083e-015 3.18055e-015 3.18055e-015 -3.18055e-015 0 0 -4.77083e-015 3.18055e-015 -9.54166e-015 4.77083e-015 3.18055e-015 3.18055e-015 -3.18055e-015 0 0 -4.77083e-015 21.2458 -41.8954 48.3043 5.76902 44.399 -5.27482 10.4101 17.4228 -18.8274 -3.69412 -19.6826 -14.7516 -0.785481 27.0245 -0.868157 0.748056 12.36 1.02811 
-21.314 4.09819 41.4678 91.6452 67.2348 28.1142 -5.57942 6.84339 -2.58112 -10.9627 13.9013 -4.52429 -10.9627 13.9013 -4.52432 -24.9241 -0.626367 6.95591 -0.847631 -1.62012 26.8118 -18.5897 11.6726 -11.4064 -51.5962 -70.5778 -3.92551 -110.939 17.8841 -0.890376 -11.4351 -47.7478 14.7238 1.45181e-006 -1.77431e-006 -3.10894e-006 -1.40344e-006 -5.08603e-007 1.754e-007 -9.54166e-015 3.18055e-015 3.18055e-015 3.18055e-015 3.18055e-015 -0 1.45181e-006 -1.77431e-006 -3.10894e-006 -1.40344e-006 -5.08603e-007 1.754e-007 -9.54166e-015 3.18055e-015 3.18055e-015 1.45181e-006 -1.77431e-006 -3.10894e-006 -1.40344e-006 -5.08603e-007 1.754e-007 -9.54166e-015 3.18055e-015 3.18055e-015 3.18055e-015 3.18055e-015 -0 1.45181e-006 -1.77431e-006 -3.10894e-006 -1.40344e-006 -5.08603e-007 1.754e-007 -9.54166e-015 3.18055e-015 3.18055e-015 1.45181e-006 -1.77431e-006 -3.10894e-006 -1.40344e-006 -5.08603e-007 1.754e-007 -9.54166e-015 3.18055e-015 3.18055e-015 -1.80723 1.04876 12.2997 -1.34176 28.3713 10.2998 -16.4271 -8.9399 -2.9206 -13.903 2.60024 19.6684 -1.30256e-006 1.36361e-006 -4.5007e-008 -1.76556e-031 3.18055e-015 3.18055e-015 -2.10851e-006 1.11531e-006 6.36635e-008 -3.18055e-015 1.59028e-015 -0 -1.30256e-006 1.36361e-006 -4.5007e-008 -1.59028e-015 1.59028e-015 -0 -2.10851e-006 1.11531e-006 6.36635e-008 -1.30256e-006 1.36361e-006 -4.5007e-008 -1.59028e-015 1.59028e-015 -0 -2.10851e-006 1.11531e-006 6.36635e-008 -3.18055e-015 1.59028e-015 -0 -1.30256e-006 1.36361e-006 -4.5007e-008 -1.59028e-015 1.59028e-015 -0 -2.10851e-006 1.11531e-006 6.36635e-008 -1.30256e-006 1.36361e-006 -4.5007e-008 -1.59028e-015 1.59028e-015 -0 -2.10851e-006 1.11531e-006 6.36635e-008 67.8916 -28.5194 94.7265 30.6846 70.4427 -27.5977 28.9289 32.9526 -38.8565 -19.5215 -34.1336 -32.0174 -2.1208 56.1425 -0.0960774 4.74405 17.9683 0.558824 
-22.4426 -7.70388 47.2363 82.7329 75.1426 56.2015 -6.53887 7.94744 -3.09642 -12.8249 16.1896 -5.32861 -12.8249 16.1896 -5.3286 -29.1704 -0.844012 8.08778 -0.839878 -1.92291 31.399 -21.3461 13.6072 -13.4744 -79.2572 -81.9213 -23.6716 -129.207 18.4379 -3.68389 -9.98206 -56.1212 18.5583 2.55386e-006 -2.21272e-006 1.50533e-007 -1.78906e-015 -3.97569e-016 -0 2.55386e-006 -2.21272e-006 1.50533e-007 1.98785e-015 1.39149e-015 -3.18055e-015 2.55386e-006 -2.21272e-006 1.50533e-007 4.77083e-015 -2.18663e-015 3.18055e-015 2.55386e-006 -2.21272e-006 1.50533e-007 2.55386e-006 -2.21272e-006 1.50533e-007 4.77083e-015 -2.18663e-015 3.18055e-015 2.55386e-006 -2.21272e-006 1.50533e-007 1.98785e-015 1.39149e-015 -3.18055e-015 2.55386e-006 -2.21272e-006 1.50533e-007 4.77083e-015 -2.18663e-015 3.18055e-015 2.55386e-006 -2.21272e-006 1.50533e-007 2.55386e-006 -2.21272e-006 1.50533e-007 4.77083e-015 -2.18663e-015 3.18055e-015 2.55386e-006 -2.21272e-006 1.50533e-007 -2.15082 1.22962 14.3124 -3.06652 32.8042 13.7951 -18.5308 -10.5263 -0.489664 -16.6966 2.64394 22.9411 -4.27387e-015 -1.98785e-016 1.59028e-015 5.46658e-016 -1.98785e-016 3.18055e-015 -1.04362e-015 -5.96354e-016 1.59028e-015 -2.5842e-015 0 -1.59028e-015 -1.04362e-015 -1.19271e-015 7.95139e-015 -2.6339e-015 0 1.59028e-015 -2.5345e-015 0 1.59028e-015 -1.04362e-015 -1.19271e-015 7.95139e-015 -2.6339e-015 0 1.59028e-015 -2.5345e-015 0 1.59028e-015 -2.5842e-015 0 -1.59028e-015 -1.04362e-015 -1.19271e-015 7.95139e-015 -2.6339e-015 0 1.59028e-015 -2.5345e-015 0 1.59028e-015 -1.04362e-015 -1.19271e-015 7.95139e-015 -2.6339e-015 0 1.59028e-015 -2.5345e-015 0 1.59028e-015 79.5643 -17.0411 99.6814 75.8315 77.8985 -70.2012 36.9336 34.2755 -46.4482 -26.4857 -36.9264 -39.4986 -3.25981 64.9183 0.400858 5.80964 20.3345 0.676221 
-22.0202 -4.30657 45.5643 88.1341 73.2594 45.0362 -6.25567 7.65193 -2.92606 -12.2775 15.5717 -5.05484 -12.2775 15.5717 -5.05487 -27.8878 -1.00127 7.63071 -0.845204 -2.05392 30.0079 -20.6355 13.1052 -12.8733 -66.7715 -78.6916 -13.7519 -123.552 18.2747 -2.93658 -10.6209 -53.5297 17.4551 1.49567e-006 -2.43378e-006 -2.87001e-006 7.61061e-007 1.48463e-006 2.51134e-007 -7.25661e-007 3.98347e-007 -3.39463e-006 2.38542e-015 -6.36111e-015 3.18055e-015 1.49567e-006 -2.43378e-006 -2.87001e-006 7.61061e-007 1.48463e-006 2.51134e-007 -7.25661e-007 3.98347e-007 -3.39463e-006 1.49567e-006 -2.43378e-006 -2.87001e-006 7.61061e-007 1.48463e-006 2.51134e-007 -7.25661e-007 3.98347e-007 -3.39463e-006 2.38542e-015 -6.36111e-015 3.18055e-015 1.49567e-006 -2.43378e-006 -2.87001e-006 7.61061e-007 1.48463e-006 2.51134e-007 -7.25661e-007 3.98347e-007 -3.39463e-006 1.49567e-006 -2.43378e-006 -2.87001e-006 7.61061e-007 1.48463e-006 2.51134e-007 -7.25661e-007 3.98347e-007 -3.39463e-006 -2.02479 1.19942 13.5226 -2.47747 31.4847 12.6928 -17.9065 -10.0527 -1.22787 -15.8412 2.64504 21.9551 4.20518e-007 6.97272e-008 -1.76869e-008 -3.97569e-016 7.95139e-016 -0 0 1.59028e-015 -0 -1.19271e-015 -1.59028e-015 -3.18055e-015 4.20518e-007 6.97272e-008 -1.76869e-008 -1.98785e-016 7.95139e-016 -0 -9.93923e-016 0 -0 4.20518e-007 6.97272e-008 -1.76869e-008 -1.98785e-016 7.95139e-016 -0 -9.93923e-016 0 -0 -1.19271e-015 -1.59028e-015 -3.18055e-015 4.20518e-007 6.97272e-008 -1.76869e-008 -1.98785e-016 7.95139e-016 -0 -9.93923e-016 0 -0 4.20518e-007 6.97272e-008 -1.76869e-008 -1.98785e-016 7.95139e-016 -0 -9.93923e-016 0 -0 76.2573 -20.6353 98.9182 57.4974 76.6628 -52.6432 34.5398 33.9802 -44.1522 -24.3944 -36.1208 -37.3678 -2.84649 62.272 0.195689 5.35719 19.6372 0.799084 
-21.8253 -2.37585 44.6132 89.988 71.994 39.9995 -6.10175 7.50094 -2.82915 -11.9804 15.2551 -4.89524 -11.9804 15.255 -4.89525 -27.1843 -1.16496 7.33988 -0.850616 -2.20253 29.2419 -20.2778 12.8548 -12.5543 -62.0607 -76.8352 -10.5001 -120.374 18.1337 -2.59013 -10.9081 -52.08 16.9666 1.59028e-015 -1.59028e-015 6.36111e-015 0 1.59028e-015 -0 -0 -1.59028e-015 -0 1.59028e-015 -1.59028e-015 6.36111e-015 -1.59028e-015 -3.18055e-015 9.54166e-015 1.59028e-015 -1.59028e-015 3.18055e-015 1.59028e-015 3.18055e-015 3.18055e-015 -1.59028e-015 -3.18055e-015 9.54166e-015 1.59028e-015 -1.59028e-015 3.18055e-015 1.59028e-015 3.18055e-015 3.18055e-015 1.59028e-015 -1.59028e-015 6.36111e-015 -1.59028e-015 -3.18055e-015 9.54166e-015 1.59028e-015 -1.59028e-015 3.18055e-015 1.59028e-015 3.18055e-015 3.18055e-015 -1.59028e-015 -3.18055e-015 9.54166e-015 1.59028e-015 -1.59028e-015 3.18055e-015 1.59028e-015 3.18055e-015 3.18055e-015 -1.94873 1.19091 13.0258 -2.17902 30.7509 12.104 -17.5588 -9.78997 -1.63269 -15.3746 2.64031 21.4114 -3.97569e-016 -7.95139e-016 3.18055e-015 -0 0 3.18055e-015 4.41391e-032 -7.95139e-016 3.18055e-015 -3.97569e-016 -7.95139e-016 -3.18055e-015 7.95139e-016 -1.59028e-015 9.54166e-015 3.97569e-016 -7.95139e-016 3.18055e-015 3.97569e-016 0 6.36111e-015 7.95139e-016 -1.59028e-015 9.54166e-015 3.97569e-016 -7.95139e-016 3.18055e-015 3.97569e-016 0 6.36111e-015 -3.97569e-016 -7.95139e-016 -3.18055e-015 7.95139e-016 -1.59028e-015 9.54166e-015 3.97569e-016 -7.95139e-016 3.18055e-015 3.97569e-016 0 6.36111e-015 7.95139e-016 -1.59028e-015 9.54166e-015 3.97569e-016 -7.95139e-016 3.18055e-015 3.97569e-016 0 6.36111e-015 74.3712 -22.5832 98.234 49.1329 75.503 -44.7068 33.2165 33.7885 -42.8949 -23.3116 -35.6382 -36.2884 -2.64946 60.8233 0.108823 5.06139 19.2503 0.919462 
-21.8253 -2.37586 44.6131 89.988 71.994 39.9995 -6.10663 7.52853 -2.81987 -11.9914 15.3093 -4.87317 -11.9914 15.3093 -4.87315 -27.1862 -1.33634 7.25189 -0.850737 -2.37102 29.2394 -20.3611 12.9151 -12.5765 -62.0766 -76.857 -10.635 -120.25 18.0799 -2.69594 -10.9162 -52.0299 17.1155 3.18055e-015 -1.59028e-015 -6.36111e-015 3.18055e-015 0 -3.18055e-015 6.36111e-015 0 -6.36111e-015 0 0 -0 1.59028e-015 -6.36111e-015 -0 3.18055e-015 -1.59028e-015 -3.18055e-015 3.18055e-015 0 -0 1.59028e-015 -6.36111e-015 -0 3.18055e-015 -1.59028e-015 -3.18055e-015 3.18055e-015 0 -0 0 0 -0 1.59028e-015 -6.36111e-015 -0 3.18055e-015 -1.59028e-015 -3.18055e-015 3.18055e-015 0 -0 1.59028e-015 -6.36111e-015 -0 3.18055e-015 -1.59028e-015 -3.18055e-015 3.18055e-015 0 -0 -1.93269 1.20927 12.887 -2.17902 30.7509 12.104 -17.5588 -9.78997 -1.6327 -15.3746 2.64031 21.4114 -2.68615e-007 8.15672e-007 8.65222e-009 -8.81788e-008 4.02476e-007 1.31934e-006 -3.73138e-007 7.95161e-007 1.52614e-008 0 0 -0 -2.68615e-007 8.15672e-007 8.65223e-009 -8.81788e-008 4.02476e-007 1.31934e-006 -3.73138e-007 7.95161e-007 1.52614e-008 -2.68615e-007 8.15672e-007 8.65223e-009 -8.81788e-008 4.02476e-007 1.31934e-006 -3.73138e-007 7.95161e-007 1.52614e-008 0 0 -0 -2.68615e-007 8.15672e-007 8.65223e-009 -8.81788e-008 4.02476e-007 1.31934e-006 -3.73138e-007 7.95161e-007 1.52614e-008 -2.68615e-007 8.15672e-007 8.65223e-009 -8.81788e-008 4.02476e-007 1.31934e-006 -3.73138e-007 7.95161e-007 1.52614e-008 74.3723 -22.5818 98.2343 49.1349 75.5038 -44.7101 33.2165 33.7885 -42.8949 -23.3859 -35.6021 -36.4382 -2.64925 60.8231 0.109655 4.95615 19.256 1.03941 
